<?xml version="1.0" encoding="utf-8"?>
<!-- Generator: Adobe Illustrator 24.0.3, SVG Export Plug-In . SVG Version: 6.00 Build 0)  -->
<svg version="1.1" id="Layer_1" xmlns="http://www.w3.org/2000/svg" xmlns:xlink="http://www.w3.org/1999/xlink" x="0px" y="0px"
	 viewBox="0 0 223 224" style="enable-background:new 0 0 223 224;" xml:space="preserve">
<style type="text/css">
	.st0{fill:none;stroke:#C69C6D;stroke-miterlimit:10;}
	.st1{fill:none;stroke:#37B34A;stroke-miterlimit:10;}
	.st2{fill:none;stroke:#FCEE21;stroke-miterlimit:10;}
	.st3{fill:none;stroke:#FF00FF;stroke-miterlimit:10;}
</style>
<path class="st0" d="M169.41,57.87c45.02,16.77,61.32,112.51-28.42,118.36c-10.82,3.54-96.87-20.24-117.36-48.09
	c-10.56-21.03-1.17-43.13,27.51-49.6c7.21-2.91,36.31-14.72,44.21-19.3C96.92,56.63,125.22,39.59,169.41,57.87z"/>
<path class="st1" d="M128.84,23.59c-0.02,0,18.21-0.02,30.18,20.22c13.97,29.82,10.5,30.83,22.72,52.47
	c34.98,61.97-6.46,102.67-34.6,109.37c-50.14,9.58-91.05-28.93-87.16-70.09c1.55-27.1,23.63-50.94,29.1-65.68
	C98.34,48.74,103.03,23.74,128.84,23.59z"/>
<path class="st2" d="M131.29,33.69c-0.02,0,10.55-1.53,20.54,16.28c11.57,26.29,10.93,31.22,20.92,50.39
	c32.44,54.98-7.28,89.46-31.56,95.81c-43.22,9.24-74.61-25.38-70.68-62.01c1.73-24.1,21.03-45.6,25.95-58.77
	C104.72,56.47,109.11,34.19,131.29,33.69z"/>
<path class="st3" d="M133.08,102.9c26.12,6.28,40.88,57.61,6.06,65.21C76.63,172.95,111.4,99.93,133.08,102.9z"/>
<path class="st1" d="M140.97,122.24c0,0,2.87-1.27,5.95,5.87c0,0,6.25,12.32,3.09,20.32"/>
</svg>
